<svg width="24" height="23" viewBox="0 0 24 23" fill="none" xmlns="http://www.w3.org/2000/svg">
<path fill-rule="evenodd" clip-rule="evenodd" d="M11.25 23C11.05 23 10.861 22.922 10.72 22.78L0.22 12.28C0.15 12.21 0.095 12.128 0.057 12.035C0.054 12.027 0.05 12.018 0.047 12.009C0.016 11.924 0 11.838 0 11.75C0 11.661 0.016 11.574 0.048 11.489C0.05 11.482 0.053 11.475 0.056 11.468C0.096 11.371 0.151 11.289 0.222 11.219L10.72 0.72C10.862 0.578 11.05 0.5 11.25 0.5C11.45 0.5 11.639 0.578 11.78 0.72C11.922 0.861 12 1.05 12 1.25C12 1.45 11.922 1.639 11.78 1.78L2.56 11H23.25C23.664 11 24 11.336 24 11.75C24 12.164 23.664 12.5 23.25 12.5H2.561L11.781 21.72C12.073 22.012 12.073 22.488 11.781 22.781C11.639 22.922 11.45 23 11.25 23Z" fill="#898D96"/>
</svg>
