<svg width="24" height="23" viewBox="0 0 24 23" fill="none" xmlns="http://www.w3.org/2000/svg">
<path fill-rule="evenodd" clip-rule="evenodd" d="M12.75 0.5C12.95 0.5 13.139 0.577999 13.28 0.719999L23.78 11.22C23.85 11.29 23.905 11.372 23.943 11.465C23.946 11.473 23.95 11.482 23.953 11.491C23.984 11.576 24 11.662 24 11.75C24 11.839 23.984 11.926 23.952 12.011C23.95 12.018 23.947 12.025 23.944 12.032C23.904 12.129 23.849 12.211 23.778 12.281L13.28 22.78C13.138 22.922 12.95 23 12.75 23C12.55 23 12.361 22.922 12.22 22.78C12.078 22.639 12 22.45 12 22.25C12 22.05 12.078 21.861 12.22 21.72L21.44 12.5L0.75 12.5C0.336 12.5 0 12.164 0 11.75C0 11.336 0.336 11 0.75 11L21.439 11L12.219 1.78C11.927 1.488 11.927 1.012 12.219 0.719C12.361 0.577999 12.55 0.5 12.75 0.5Z" fill="#898D96"/>
</svg>
